<svg width="232" height="68" viewBox="0 0 232 68" fill="none" xmlns="http://www.w3.org/2000/svg">
<path d="M33.1608 8.92041V2.99498C31.097 3.34239 25.6505 0 16.385 0C2.63495 0 0.141503 6.63931 0.0844431 10.6288C-7.11714e-07 16.5317 3.11219 21.0475 16.0479 24.8048C26.2945 27.7811 30.9192 30.9788 30.9192 35.4792C30.9192 41.5583 25.8771 46.7377 16.8522 46.6626C7.82729 46.5877 1.51336 41.3811 0.0844431 37.7059C0.0844431 41.8384 0 43.8756 0 44.5185C1.54635 43.9969 7.27873 48.1317 17.0256 48.1317C29.2093 48.1317 35.3589 41.6008 35.3589 35.0753C35.3589 28.5498 28.1563 23.7548 17.0256 20.7545C5.89489 17.7543 4.39413 14.8961 3.84493 10.6288C3.43252 7.42444 6.28794 1.26376 15.9145 1.26376C25.5411 1.26376 33.1608 6.29519 33.1608 8.92041Z" fill="black"/>
<path fill-rule="evenodd" clip-rule="evenodd" d="M43.4497 0.514404H46.344H50.2544H53.0391V1.05604H52.7664C51.3836 1.05604 50.2625 2.17412 50.2625 3.55323H50.2544V44.2431H50.2625C50.2625 45.6222 51.3836 46.7403 52.7664 46.7403H53.0391V47.2818H50.2544V47.2819H46.344V47.2818H43.4497V46.7403H43.8713C45.1192 46.7403 46.1538 45.8299 46.344 44.6388V3.15742C46.1538 1.9663 45.1191 1.05604 43.8713 1.05604H43.4497V0.514404Z" fill="black"/>
<path d="M61.1289 0.514404V1.05604H61.5505C62.7983 1.05604 63.833 1.96643 64.0232 3.15755V44.6389C63.833 45.83 62.7983 46.7404 61.5505 46.7404H61.1289V47.2819H93.6721V45.8867H67.9417V44.2432H67.9334V3.55324H67.9417C67.9417 2.17412 69.0628 1.05604 70.4456 1.05604H70.7183V0.514404H61.1289Z" fill="black"/>
<path d="M183.513 0.514404V1.05604H183.936C185.183 1.05604 186.218 1.96643 186.408 3.15755V44.6389C186.218 45.83 185.183 46.7404 183.936 46.7404H183.513V47.2819H193.103V46.7404H192.83C191.448 46.7404 190.326 45.6223 190.326 44.2432H190.318V11.1021C190.591 11.6049 190.912 12.1294 191.293 12.6774C193.602 16.0019 198.079 20.1985 206.735 25.6734C215.345 31.1206 220.01 34.8592 222.523 37.7442C223.771 39.1778 224.473 40.3829 224.866 41.4644C225.107 42.1267 225.24 42.7578 225.305 43.3881V44.6389C225.115 45.83 224.081 46.7404 222.832 46.7404H222.411V47.2819H232V46.7404H231.728C230.344 46.7404 229.224 45.6223 229.224 44.2432H229.215V3.55324H229.224C229.224 2.17412 230.344 1.05604 231.728 1.05604H232V0.514404H222.411V1.05604H222.832C224.081 1.05604 225.115 1.96643 225.305 3.15755V39.0384C224.87 38.3254 224.32 37.5796 223.63 36.7858C220.969 33.7311 216.149 29.8991 207.519 24.4392C198.931 19.0069 194.644 14.9352 192.498 11.8452C191.43 10.3082 190.894 9.01674 190.622 7.92038C190.348 6.8211 190.329 5.8881 190.329 5.02826H190.318V3.55324H190.326C190.326 2.17412 191.448 1.05604 192.83 1.05604H193.103V0.514404H183.513Z" fill="black"/>
<path d="M154.662 0.744873H158.823L178.841 47.3815H174.752L154.662 0.744873Z" fill="black"/>
<path d="M137.874 47.2906L154.651 0.796387H155.995L139.105 47.2906H137.874Z" fill="black"/>
<path fill-rule="evenodd" clip-rule="evenodd" d="M125.397 22.6007C125.137 22.3099 124.903 22.0474 124.685 21.8238L125.737 20.8057C125.997 21.0732 126.262 21.3681 126.542 21.682C127.671 22.9425 129.072 24.5076 131.614 25.8281C134.775 27.4697 139.742 28.7311 148.076 28.2021C156.59 27.6617 161.843 28.9391 165.307 30.7385C168.113 32.1955 169.719 33.9965 170.848 35.2621C171.107 35.5529 171.341 35.8154 171.558 36.039L170.508 37.0571C170.246 36.7896 169.983 36.4946 169.703 36.1808C168.574 34.9203 167.173 33.3551 164.631 32.0348C161.47 30.3931 156.502 29.1317 148.169 29.6607C139.654 30.2012 134.402 28.9236 130.937 27.1243C128.132 25.6673 126.526 23.8663 125.397 22.6007Z" fill="black"/>
<path d="M109.506 0.750488H113.666L133.685 47.3871H129.595L109.506 0.750488Z" fill="black"/>
<path d="M92.7173 47.2906L109.496 0.796387H110.839L93.9489 47.2906H92.7173Z" fill="black"/>
<path d="M66.2398 67.9553C65.6275 67.9553 65.0748 67.8189 64.5815 67.5462C64.0941 67.2736 63.7077 66.897 63.4224 66.4168C63.1431 65.9366 63.0034 65.3972 63.0034 64.7983C63.0034 64.1996 63.1431 63.66 63.4224 63.1798C63.7077 62.6996 64.0941 62.3232 64.5815 62.0504C65.0748 61.7778 65.6275 61.6414 66.2398 61.6414C66.6916 61.6414 67.1075 61.7155 67.488 61.8637C67.8684 62.006 68.1923 62.2194 68.4598 62.504L68.1745 62.7974C67.6752 62.3054 67.0362 62.0593 66.2576 62.0593C65.7345 62.0593 65.2591 62.178 64.8311 62.415C64.4032 62.6522 64.0673 62.9812 63.8237 63.4021C63.58 63.8172 63.4581 64.2825 63.4581 64.7983C63.4581 65.3141 63.58 65.7825 63.8237 66.2034C64.0673 66.6184 64.4032 66.9445 64.8311 67.1816C65.2591 67.4188 65.7345 67.5373 66.2576 67.5373C67.0304 67.5373 67.6692 67.2883 68.1745 66.7903L68.4598 67.0838C68.1923 67.3683 67.8654 67.5848 67.4791 67.7329C67.0986 67.8812 66.6856 67.9553 66.2398 67.9553ZM73.4869 67.9553C72.696 67.9553 72.0811 67.7271 71.6413 67.2705C71.2073 66.8141 70.9904 66.1471 70.9904 65.2696V61.6858H71.4451V65.2518C71.4451 66.0166 71.6205 66.5888 71.9711 66.9682C72.3215 67.3476 72.8297 67.5373 73.4958 67.5373C74.1556 67.5373 74.6612 67.3476 75.0115 66.9682C75.3618 66.5888 75.5375 66.0166 75.5375 65.2518V61.6858H75.9922V65.2696C75.9922 66.1471 75.7719 66.8141 75.3325 67.2705C74.893 67.7271 74.2779 67.9553 73.4869 67.9553ZM80.8245 67.9553C80.366 67.9553 79.9291 67.8783 79.5139 67.724C79.1038 67.564 78.7828 67.3594 78.551 67.1104L78.7561 66.7725C78.9751 67.0037 79.2693 67.1935 79.6387 67.3417C80.0132 67.4839 80.4055 67.5551 80.8156 67.5551C81.4091 67.5551 81.8587 67.4425 82.1618 67.2172C82.465 66.9919 82.6165 66.6985 82.6165 66.3368C82.6165 66.0582 82.5363 65.8358 82.3758 65.6698C82.2153 65.5039 82.0154 65.3763 81.7785 65.2874C81.5403 65.1985 81.2193 65.1066 80.8156 65.0117C80.3571 64.8992 79.989 64.7894 79.71 64.6827C79.4362 64.576 79.2018 64.413 79.0057 64.1936C78.8146 63.9683 78.7204 63.6689 78.7204 63.2954C78.7204 62.9931 78.8006 62.7174 78.9611 62.4684C79.1216 62.2135 79.3649 62.0119 79.6922 61.8637C80.0246 61.7155 80.4373 61.6414 80.9315 61.6414C81.2754 61.6414 81.6142 61.6918 81.9479 61.7925C82.2803 61.8934 82.5681 62.0297 82.8127 62.2016L82.6433 62.5662C82.3936 62.3943 82.1173 62.2639 81.8141 62.1749C81.5161 62.086 81.2219 62.0415 80.9315 62.0415C80.3545 62.0415 79.9176 62.1571 79.6209 62.3884C79.3228 62.6196 79.1751 62.919 79.1751 63.2865C79.1751 63.5653 79.2553 63.7876 79.4158 63.9535C79.5763 64.1195 79.775 64.2469 80.0132 64.3359C80.2501 64.4248 80.5748 64.5197 80.985 64.6205C81.4422 64.7331 81.8078 64.8428 82.0816 64.9495C82.3542 65.0562 82.586 65.2193 82.777 65.4386C82.9731 65.652 83.0712 65.9426 83.0712 66.3101C83.0712 66.6124 82.9872 66.8881 82.8216 67.1371C82.6611 67.3861 82.4115 67.5848 82.0727 67.7329C81.7339 67.8812 81.3174 67.9553 80.8245 67.9553ZM86.7941 62.0949H84.5474V61.6858H89.4956V62.0949H87.2488V67.9108H86.7941V62.0949ZM94.254 67.9553C93.6413 67.9553 93.0886 67.8189 92.5957 67.5462C92.1028 67.2676 91.713 66.8881 91.4277 66.4079C91.1488 65.9277 91.0087 65.3912 91.0087 64.7983C91.0087 64.2055 91.1488 63.6689 91.4277 63.1887C91.713 62.7085 92.1028 62.3321 92.5957 62.0593C93.0886 61.7807 93.6413 61.6414 94.254 61.6414C94.8666 61.6414 95.4194 61.7778 95.9123 62.0504C96.4052 62.3232 96.7924 62.6996 97.0713 63.1798C97.3566 63.66 97.4993 64.1996 97.4993 64.7983C97.4993 65.3972 97.3566 65.9366 97.0713 66.4168C96.7924 66.897 96.4052 67.2736 95.9123 67.5462C95.4194 67.8189 94.8666 67.9553 94.254 67.9553ZM94.254 67.5373C94.7774 67.5373 95.25 67.4188 95.6716 67.1816C96.0931 66.9445 96.4268 66.6184 96.6701 66.2034C96.9134 65.7825 97.0357 65.3141 97.0357 64.7983C97.0357 64.2825 96.9134 63.8172 96.6701 63.4021C96.4268 62.9812 96.0931 62.6522 95.6716 62.415C95.25 62.178 94.7774 62.0593 94.254 62.0593C93.7305 62.0593 93.2554 62.178 92.8275 62.415C92.4059 62.6522 92.0722 62.9812 91.8289 63.4021C91.5857 63.8172 91.4634 64.2825 91.4634 64.7983C91.4634 65.3141 91.5857 65.7825 91.8289 66.2034C92.0722 66.6184 92.4059 66.9445 92.8275 67.1816C93.2554 67.4188 93.7305 67.5373 94.254 67.5373ZM106.048 67.9108L106.039 62.584L103.427 67.0838H103.204L100.592 62.6018V67.9108H100.146V61.6858H100.529L103.32 66.4968L106.11 61.6858H106.485L106.494 67.9108H106.048ZM114.294 62.0949H112.047V61.6858H116.995V62.0949H114.748V67.9108H114.294V62.0949ZM122.741 66.1589H119.121L118.327 67.9108H117.837L120.708 61.6858H121.163L124.033 67.9108H123.543L122.741 66.1589ZM122.571 65.7765L120.931 62.1838L119.299 65.7765H122.571ZM126.236 61.6858H126.69V67.9108H126.236V61.6858ZM129.936 61.6858H130.39V67.5017H133.983V67.9108H129.936V61.6858ZM138.747 67.9553C138.134 67.9553 137.581 67.8189 137.088 67.5462C136.594 67.2676 136.206 66.8881 135.921 66.4079C135.64 65.9277 135.502 65.3912 135.502 64.7983C135.502 64.2055 135.64 63.6689 135.921 63.1887C136.206 62.7085 136.594 62.3321 137.088 62.0593C137.581 61.7807 138.134 61.6414 138.747 61.6414C139.358 61.6414 139.911 61.7778 140.405 62.0504C140.898 62.3232 141.284 62.6996 141.564 63.1798C141.849 63.66 141.992 64.1996 141.992 64.7983C141.992 65.3972 141.849 65.9366 141.564 66.4168C141.284 66.897 140.898 67.2736 140.405 67.5462C139.911 67.8189 139.358 67.9553 138.747 67.9553ZM138.747 67.5373C139.269 67.5373 139.742 67.4188 140.164 67.1816C140.586 66.9445 140.918 66.6184 141.163 66.2034C141.406 65.7825 141.528 65.3141 141.528 64.7983C141.528 64.2825 141.406 63.8172 141.163 63.4021C140.918 62.9812 140.586 62.6522 140.164 62.415C139.742 62.178 139.269 62.0593 138.747 62.0593C138.223 62.0593 137.748 62.178 137.32 62.415C136.897 62.6522 136.565 62.9812 136.322 63.4021C136.077 63.8172 135.956 64.2825 135.956 64.7983C135.956 65.3141 136.077 65.7825 136.322 66.2034C136.565 66.6184 136.897 66.9445 137.32 67.1816C137.748 67.4188 138.223 67.5373 138.747 67.5373ZM148.972 67.9108L147.483 65.8299C147.262 65.8596 147.061 65.8743 146.877 65.8743H145.093V67.9108H144.639V61.6858H146.877C147.661 61.6858 148.276 61.8726 148.722 62.2461C149.168 62.6137 149.391 63.1265 149.391 63.7845C149.391 64.2767 149.263 64.6916 149.007 65.0295C148.758 65.3616 148.399 65.5957 147.929 65.7321L149.489 67.9108H148.972ZM146.877 65.4742C147.543 65.4742 148.051 65.329 148.401 65.0384C148.751 64.742 148.927 64.3241 148.927 63.7845C148.927 63.2451 148.751 62.8301 148.401 62.5395C148.051 62.2431 147.543 62.0949 146.877 62.0949H145.093V65.4742H146.877ZM152.125 61.6858H152.58V67.9108H152.125V61.6858ZM160.906 61.6858V67.9108H160.531L156.279 62.504V67.9108H155.824V61.6858H156.207L160.451 67.0927V61.6858H160.906ZM168.614 64.825H169.051V67.1549C168.777 67.4158 168.445 67.6144 168.052 67.7507C167.665 67.8872 167.255 67.9553 166.822 67.9553C166.203 67.9553 165.645 67.8189 165.146 67.5462C164.652 67.2736 164.263 66.897 163.978 66.4168C163.698 65.9366 163.559 65.3972 163.559 64.7983C163.559 64.1996 163.698 63.66 163.978 63.1798C164.263 62.6996 164.652 62.3232 165.146 62.0504C165.645 61.7778 166.207 61.6414 166.831 61.6414C167.288 61.6414 167.707 61.7155 168.088 61.8637C168.474 62.006 168.804 62.2165 169.078 62.4951L168.792 62.7974C168.53 62.5366 168.236 62.3499 167.91 62.2372C167.589 62.1186 167.232 62.0593 166.84 62.0593C166.305 62.0593 165.82 62.178 165.387 62.415C164.959 62.6522 164.622 62.9812 164.379 63.4021C164.135 63.8172 164.014 64.2825 164.014 64.7983C164.014 65.3082 164.135 65.7736 164.379 66.1945C164.629 66.6095 164.968 66.9386 165.396 67.1816C165.824 67.4188 166.305 67.5373 166.84 67.5373C167.553 67.5373 168.144 67.3476 168.614 66.9682V64.825Z" fill="black"/>
<path fill-rule="evenodd" clip-rule="evenodd" d="M113.894 14.976C114.099 15.0075 114.276 15.1368 114.368 15.3227C115.652 17.9166 116.046 22.6732 112.191 26.2025C110.444 27.8012 108.141 28.974 105.681 29.901C103.831 30.5988 101.867 31.1663 99.9486 31.6709C100.085 31.8021 100.22 31.9328 100.355 32.063C101.952 33.6057 103.472 35.0728 104.617 36.4126C105.267 37.1736 105.818 37.9163 106.198 38.6309C106.578 39.3417 106.815 40.0718 106.775 40.7928C106.731 41.5943 106.517 42.8858 105.6 43.9822C104.661 45.1043 103.077 45.9168 100.514 45.9109C100.34 45.9104 100.173 45.8388 100.053 45.7127C99.9333 45.5864 99.8709 45.4167 99.8798 45.2431L100.207 38.9254L101.48 38.991L101.188 44.6201C103.03 44.4991 104.043 43.859 104.622 43.1685C105.286 42.3728 105.466 41.3997 105.504 40.7228C105.526 40.3229 105.396 39.8308 105.074 39.2275C104.754 38.6278 104.27 37.9644 103.647 37.2366C102.544 35.9467 101.074 34.5263 99.4684 32.9748C99.257 32.7706 99.043 32.5642 98.8277 32.3556C98.7208 32.2519 98.6125 32.1476 98.5055 32.0428C98.359 32.0797 98.2138 32.1165 98.0686 32.1528C97.777 32.2261 97.4891 32.2982 97.2038 32.3696C95.0348 32.9124 93.0491 33.4092 91.4469 33.9765C90.5439 34.2966 89.7911 34.6294 89.2141 34.9892C88.6321 35.3512 88.2729 35.7126 88.0921 36.0699C87.7851 36.6748 87.4527 37.6072 87.6297 38.6281C87.7876 39.5299 88.3621 40.6123 89.9605 41.6527L93.1587 37.2687L94.1891 38.0161L90.6445 42.8739C90.4534 43.1361 90.0942 43.2125 89.8128 43.051C87.5902 41.7782 86.6261 40.2848 86.3752 38.845C86.1306 37.4381 86.5917 36.2127 86.9559 35.4964C87.282 34.8522 87.8539 34.3382 88.5391 33.9118C89.2282 33.4831 90.0764 33.1142 91.0215 32.7795C92.6849 32.1903 94.7355 31.6772 96.8931 31.1377C97.0752 31.0923 97.2573 31.0465 97.4407 31.0006C96.0333 29.6076 94.617 28.1366 93.3637 26.6094C91.6991 24.5803 90.2917 22.4159 89.581 20.1605C88.0118 15.1816 90.7374 11.2589 93.1498 9.65261C93.323 9.53753 93.5408 9.51377 93.7344 9.58884C93.928 9.66404 94.0732 9.82854 94.1216 10.0299L99.0366 30.0639L113.337 15.1645C113.48 15.0149 113.689 14.9445 113.894 14.976ZM97.5375 29.2982L93.1179 11.2804C91.2826 12.902 89.6001 15.9837 90.796 19.7797C91.4367 21.814 92.7307 23.8326 94.3496 25.8049C95.3315 27.0013 96.4205 28.1675 97.5375 29.2982ZM100.719 30.1484L113.579 16.7485C114.356 19.0681 114.268 22.576 111.329 25.2667C109.754 26.7088 107.621 27.8116 105.232 28.7129C103.781 29.2594 102.253 29.726 100.719 30.1484Z" fill="black"/>
</svg>
