<svg width="195" height="195" viewBox="0 0 195 195" fill="none" xmlns="http://www.w3.org/2000/svg">
<g clip-path="url(#clip0_2469_23313)">
<path d="M144.494 107.681C135.236 107.681 127.703 115.216 127.703 124.477C127.703 133.739 135.235 141.273 144.494 141.273C153.756 141.273 161.29 133.738 161.29 124.477C161.29 115.216 153.756 107.681 144.494 107.681ZM144.494 132.555C140.043 132.555 136.421 128.931 136.421 124.477C136.421 120.023 140.043 116.4 144.494 116.4C148.948 116.4 152.572 120.024 152.572 124.477C152.572 128.931 148.948 132.555 144.494 132.555Z" fill="#EA6872"/>
<path d="M144.494 43.7092C135.236 43.7092 127.703 51.2438 127.703 60.5047C127.703 69.7642 135.235 77.2968 144.494 77.2968C153.756 77.2968 161.29 69.7642 161.29 60.5047C161.29 51.2438 153.756 43.7092 144.494 43.7092ZM144.494 68.579C140.043 68.579 136.421 64.957 136.421 60.5051C136.421 56.0514 140.043 52.4279 144.494 52.4279C148.949 52.4279 152.572 56.0517 152.572 60.5051C152.572 64.9566 148.948 68.579 144.494 68.579Z" fill="#EA6872"/>
<path d="M190.641 32.7897H174.65C171.342 26.6525 164.853 22.4714 157.406 22.4714H148.854V14.1892C148.854 11.7822 146.902 9.82993 144.494 9.82993C142.087 9.82993 140.135 11.7818 140.135 14.1892V22.4718H116.172V12.5458C116.172 10.1388 114.22 8.18652 111.813 8.18652H84.5679C82.1609 8.18652 80.2086 10.1384 80.2086 12.5458V22.4718H40.1045C17.9907 22.4714 0 40.4625 0 62.5763V104.643C0 107.05 1.9519 109.002 4.35932 109.002H17.4369V133.631H4.35932C1.9519 133.631 0 135.583 0 137.99V182.454C0 184.861 1.9519 186.813 4.35932 186.813H172.625C175.032 186.813 176.984 184.861 176.984 182.454V77.3974H190.641C193.048 77.3974 195 75.4455 195 73.0381V37.149C195 34.7416 193.048 32.7897 190.641 32.7897ZM88.9276 16.9048H107.454V22.4714H88.9276V16.9048ZM168.265 178.095H8.71825V167.341H168.265L168.265 178.095ZM168.265 73.0381V158.622H8.71825V142.349H116.172C117.427 142.349 118.621 141.809 119.449 140.866C120.277 139.923 120.658 138.669 120.495 137.425L111.777 70.7294C111.493 68.5588 109.643 66.9352 107.454 66.9352H45.7717C43.5829 66.9352 41.733 68.5588 41.4489 70.7294L37.5859 100.283H8.71825V62.5759C8.71825 45.2697 22.7979 31.1897 40.1045 31.1897H40.5406V41.6519C40.5406 44.0589 42.4925 46.0112 44.8999 46.0112C47.3073 46.0112 49.2592 44.0593 49.2592 41.6519V31.1897H84.5687H111.814H157.407C163.394 31.1897 168.265 36.0612 168.265 42.0483V73.0381ZM26.1551 133.631V109.002H41.4124C43.6012 109.002 45.451 107.378 45.7351 105.208L49.5982 75.6542H103.627L111.206 133.632L26.1551 133.631ZM186.282 68.6792H176.983V41.5083H186.282V68.6792Z" fill="#EA6872"/>
<path d="M44.8998 51.1685C42.4928 51.1685 40.5405 53.1204 40.5405 55.5278V57.4896C40.5405 59.8966 42.4924 61.8489 44.8998 61.8489C47.3073 61.8489 49.2592 59.897 49.2592 57.4896V55.5278C49.2588 53.1204 47.3069 51.1685 44.8998 51.1685Z" fill="#EA6872"/>
</g>
<defs>
<clipPath id="clip0_2469_23313">
<rect width="195" height="195" fill="white"/>
</clipPath>
</defs>
</svg>
