<svg width="176" height="180" viewBox="0 0 176 180" fill="none" xmlns="http://www.w3.org/2000/svg">
<path d="M159.23 17.41L122 5C122 14.0174 118.418 22.6654 112.042 29.0416C105.666 35.4179 97.0176 39 88.0002 39C78.9829 39 70.3348 35.4179 63.9586 29.0416C57.5824 22.6654 54.0002 14.0174 54.0002 5L16.7702 17.41C12.923 18.6918 9.66063 21.3065 7.57198 24.7824C5.48334 28.2583 4.70598 32.3663 5.38022 36.365L10.3102 65.86C10.6339 67.8568 11.659 69.6726 13.2014 70.9814C14.7438 72.2901 16.7024 73.0058 18.7252 73H37.0002V158C37.0002 167.35 44.6502 175 54.0002 175H122C126.509 175 130.833 173.209 134.021 170.021C137.209 166.833 139 162.509 139 158V73H157.275C159.298 73.0058 161.257 72.2901 162.799 70.9814C164.341 69.6726 165.367 67.8568 165.69 65.86L170.62 36.365C171.294 32.3663 170.517 28.2583 168.428 24.7824C166.34 21.3065 163.077 18.6918 159.23 17.41V17.41Z" stroke="#EA6872" stroke-width="10" stroke-linecap="round" stroke-linejoin="round"/>
</svg>
