<svg width="18" height="18" viewBox="0 0 18 18" fill="none" xmlns="http://www.w3.org/2000/svg">
<path d="M5.09497 12.6738L8.20229 12.6634L14.9845 6.02656C15.2506 5.76359 15.3971 5.41435 15.3971 5.04286C15.3971 4.67136 15.2506 4.32213 14.9845 4.05916L13.8677 2.9558C13.3354 2.42987 12.4067 2.43265 11.8786 2.95372L5.09497 9.59194V12.6738ZM12.8721 3.9395L13.9909 5.04077L12.8664 6.14134L11.7497 5.03868L12.8721 3.9395ZM6.50323 10.1721L10.7491 6.01682L11.8659 7.12017L7.62068 11.2741L6.50323 11.2776V10.1721Z" fill="#04A9C7"/>
<path d="M3.6867 15.4472H13.5445C14.3212 15.4472 14.9528 14.8232 14.9528 14.0559V8.02568L13.5445 9.41705V14.0559H5.91034C5.89204 14.0559 5.87302 14.0628 5.85472 14.0628C5.83148 14.0628 5.80824 14.0566 5.7843 14.0559H3.6867V4.3163H8.50788L9.91614 2.92493H3.6867C2.91005 2.92493 2.27844 3.54896 2.27844 4.3163V14.0559C2.27844 14.8232 2.91005 15.4472 3.6867 15.4472Z" fill="#04A9C7"/>
</svg>
