<svg width="25" height="22" viewBox="0 0 25 22" fill="none" xmlns="http://www.w3.org/2000/svg">
<path d="M9.37504 20.1666C9.95034 20.1666 10.4167 19.7562 10.4167 19.2499C10.4167 18.7437 9.95034 18.3333 9.37504 18.3333C8.79974 18.3333 8.33337 18.7437 8.33337 19.2499C8.33337 19.7562 8.79974 20.1666 9.37504 20.1666Z" stroke="white" stroke-width="2" stroke-linecap="round" stroke-linejoin="round"/>
<path d="M20.8333 20.1666C21.4086 20.1666 21.875 19.7562 21.875 19.2499C21.875 18.7437 21.4086 18.3333 20.8333 18.3333C20.258 18.3333 19.7916 18.7437 19.7916 19.2499C19.7916 19.7562 20.258 20.1666 20.8333 20.1666Z" stroke="white" stroke-width="2" stroke-linecap="round" stroke-linejoin="round"/>
<path d="M1.04163 0.916748H5.20829L7.99996 13.1909C8.09521 13.6129 8.35611 13.992 8.73699 14.2619C9.11786 14.5317 9.59444 14.675 10.0833 14.6667H20.2083C20.6971 14.675 21.1737 14.5317 21.5546 14.2619C21.9355 13.992 22.1964 13.6129 22.2916 13.1909L23.9583 5.50008H6.24996" stroke="white" stroke-linecap="round" stroke-linejoin="round"/>
</svg>
