<svg width="19" height="21" viewBox="0 0 19 21" fill="none" xmlns="http://www.w3.org/2000/svg">
<path d="M1.55555 8.90545L8.49957 1.71451C8.88139 1.31912 9.51074 1.306 9.9087 1.68515L17.4822 8.90053C17.6803 9.08926 17.7924 9.35093 17.7924 9.62455V19C17.7924 19.5523 17.3447 20 16.7924 20H12.9425C12.3902 20 11.9425 19.5523 11.9425 19V13.9216C11.9425 13.3693 11.4948 12.9216 10.9425 12.9216H7.78074C7.22846 12.9216 6.78074 13.3693 6.78074 13.9216V19C6.78074 19.5523 6.33303 20 5.78074 20H2.2749C1.72262 20 1.2749 19.5523 1.2749 19V9.6001C1.2749 9.34093 1.37552 9.09188 1.55555 8.90545Z" stroke="white"/>
</svg>
