<svg width="17" height="21" viewBox="0 0 17 21" fill="none" xmlns="http://www.w3.org/2000/svg">
<path d="M8.28718 10.4313C10.6832 10.4313 12.6255 8.32003 12.6255 5.71565C12.6255 3.11127 10.6832 1 8.28718 1C5.89119 1 3.94885 3.11127 3.94885 5.71565C3.94885 8.32003 5.89119 10.4313 8.28718 10.4313Z" stroke="white"/>
<path d="M12.6256 12.3184H12.9311C13.5654 12.3186 14.1778 12.5705 14.6533 13.0269C15.1288 13.4833 15.4346 14.1127 15.5132 14.7969L15.8525 17.7432C15.883 18.0087 15.8612 18.2781 15.7886 18.5337C15.716 18.7893 15.5942 19.0251 15.4313 19.2257C15.2685 19.4262 15.0682 19.5867 14.8439 19.6967C14.6195 19.8066 14.3763 19.8635 14.1302 19.8634H2.44445C2.19836 19.8635 1.95508 19.8066 1.73075 19.6967C1.50641 19.5867 1.30616 19.4262 1.14328 19.2257C0.980393 19.0251 0.858606 18.7893 0.785997 18.5337C0.713388 18.2781 0.691619 18.0087 0.722133 17.7432L1.06052 14.7969C1.13922 14.1124 1.44526 13.4827 1.9211 13.0263C2.39694 12.5699 3.0098 12.3181 3.64443 12.3184H3.94898" stroke="white" stroke-linecap="round" stroke-linejoin="round"/>
</svg>
