<svg width="18" height="21" viewBox="0 0 18 21" fill="none" xmlns="http://www.w3.org/2000/svg">
<path d="M10.8638 0.4375C11.0002 0.437505 11.1331 0.485806 11.2433 0.575446C11.3535 0.665087 11.4354 0.791441 11.4771 0.936312L12.1859 3.393C12.4836 3.55544 12.7683 3.738 13.0402 3.94356L15.3031 3.40019C15.4365 3.36841 15.5755 3.3847 15.7001 3.4467C15.8247 3.5087 15.9284 3.61321 15.9963 3.74519L17.7824 7.19375C17.8506 7.32565 17.8795 7.4783 17.8649 7.6297C17.8503 7.7811 17.793 7.92341 17.7012 8.03612L16.1484 9.948C16.171 10.3146 16.171 10.6825 16.1484 11.0491L17.7012 12.9639C17.793 13.0766 17.8503 13.2189 17.8649 13.3703C17.8795 13.5217 17.8506 13.6744 17.7824 13.8063L15.9963 17.2563C15.9282 17.388 15.8244 17.4922 15.6998 17.5539C15.5753 17.6156 15.4363 17.6317 15.3031 17.5998L13.0402 17.0564C12.7696 17.2606 12.4836 17.4446 12.1872 17.607L11.4771 20.0637C11.4354 20.2086 11.3535 20.3349 11.2433 20.4246C11.1331 20.5142 11.0002 20.5625 10.8638 20.5625H7.29168C7.15527 20.5625 7.02238 20.5142 6.91215 20.4246C6.80192 20.3349 6.72004 20.2086 6.6783 20.0637L5.97084 17.6084C5.67397 17.4465 5.38762 17.2616 5.11391 17.055L2.85237 17.5998C2.71895 17.6316 2.57994 17.6153 2.45535 17.5533C2.33076 17.4913 2.22702 17.3868 2.15909 17.2548L0.373056 13.8063C0.304855 13.6744 0.275967 13.5217 0.290557 13.3703C0.305148 13.2189 0.362463 13.0766 0.454239 12.9639L2.00703 11.0491C1.98454 10.6835 1.98454 10.3165 2.00703 9.95088L0.454239 8.03612C0.362463 7.92341 0.305148 7.7811 0.290557 7.6297C0.275967 7.4783 0.304855 7.32565 0.373056 7.19375L2.15909 3.74375C2.22721 3.61204 2.33102 3.50782 2.4556 3.44609C2.58017 3.38435 2.71909 3.36828 2.85237 3.40019L5.11391 3.945C5.3871 3.73944 5.67317 3.554 5.97084 3.39156L6.67959 0.936312C6.72119 0.791908 6.80268 0.665888 6.9124 0.576291C7.02211 0.486693 7.15442 0.438112 7.29039 0.4375H10.8625H10.8638ZM10.3921 1.875H7.76332L7.03138 4.41506L6.53784 4.68388C6.29521 4.81632 6.06099 4.96713 5.83683 5.13525L5.38065 5.48025L3.04051 4.91675L1.72611 7.45825L3.33045 9.43913L3.29179 10.0486C3.27328 10.3492 3.27328 10.6508 3.29179 10.9514L3.33045 11.5609L1.72353 13.5417L3.03922 16.0833L5.37936 15.5212L5.83554 15.8648C6.05971 16.0329 6.29392 16.1837 6.53655 16.3161L7.03009 16.5849L7.76332 19.125H10.3947L11.1292 16.5835L11.6215 16.3161C11.8638 16.184 12.0976 16.0332 12.3212 15.8648L12.7761 15.5212L15.1175 16.0833L16.4319 13.5417L14.8263 11.5609L14.8649 10.9514C14.8835 10.6503 14.8835 10.3482 14.8649 10.0472L14.8263 9.43769L16.4332 7.45825L15.1175 4.91675L12.7761 5.47738L12.3212 5.13525C12.0977 4.9668 11.8638 4.81597 11.6215 4.68388L11.1292 4.4165L10.3934 1.875H10.3921ZM9.07772 6.1875C10.103 6.1875 11.0863 6.64185 11.8113 7.4506C12.5363 8.25935 12.9436 9.35625 12.9436 10.5C12.9436 11.6437 12.5363 12.7406 11.8113 13.5494C11.0863 14.3581 10.103 14.8125 9.07772 14.8125C8.05242 14.8125 7.06912 14.3581 6.34413 13.5494C5.61914 12.7406 5.21184 11.6437 5.21184 10.5C5.21184 9.35625 5.61914 8.25935 6.34413 7.4506C7.06912 6.64185 8.05242 6.1875 9.07772 6.1875ZM9.07772 7.625C8.39419 7.625 7.73865 7.9279 7.25533 8.46707C6.772 9.00624 6.50047 9.7375 6.50047 10.5C6.50047 11.2625 6.772 11.9938 7.25533 12.5329C7.73865 13.0721 8.39419 13.375 9.07772 13.375C9.76125 13.375 10.4168 13.0721 10.9001 12.5329C11.3834 11.9938 11.655 11.2625 11.655 10.5C11.655 9.7375 11.3834 9.00624 10.9001 8.46707C10.4168 7.9279 9.76125 7.625 9.07772 7.625Z" fill="white"/>
</svg>
